<svg width="32" height="33" viewBox="0 0 32 33" fill="none" xmlns="http://www.w3.org/2000/svg">
<path d="M10 0H0V32H10V0Z" fill="white"/>
<path d="M19.2102 10H15.7156V0.545454H19.2056C20.1689 0.545454 20.9983 0.73473 21.6939 1.11328C22.3925 1.48875 22.9311 2.03042 23.3097 2.73828C23.6882 3.44306 23.8775 4.28634 23.8775 5.26811C23.8775 6.25296 23.6882 7.09931 23.3097 7.80717C22.9342 8.51503 22.3971 9.05824 21.6985 9.43679C20.9999 9.81226 20.1705 10 19.2102 10ZM18.0007 8.05185H19.1225C19.6519 8.05185 20.0997 7.96259 20.4659 7.78409C20.8352 7.60251 21.1138 7.30859 21.3015 6.90234C21.4923 6.49302 21.5877 5.94827 21.5877 5.26811C21.5877 4.58795 21.4923 4.04628 21.3015 3.64311C21.1107 3.23686 20.8291 2.94448 20.4567 2.76598C20.0874 2.5844 19.6319 2.49361 19.0902 2.49361H18.0007V8.05185Z" fill="white"/>
<path d="M23.7976 14.9709H21.4893C21.4586 14.7339 21.3955 14.52 21.3001 14.3292C21.2047 14.1384 21.0785 13.9753 20.9215 13.8398C20.7646 13.7044 20.5784 13.6013 20.3629 13.5305C20.1506 13.4567 19.9151 13.4197 19.6566 13.4197C19.198 13.4197 18.8026 13.5321 18.4702 13.7567C18.1409 13.9814 17.887 14.3061 17.7085 14.7308C17.533 15.1555 17.4453 15.6695 17.4453 16.2727C17.4453 16.9006 17.5346 17.4268 17.7131 17.8516C17.8946 18.2732 18.1486 18.5917 18.4748 18.8072C18.8041 19.0195 19.1934 19.1257 19.6428 19.1257C19.8951 19.1257 20.1244 19.0934 20.3306 19.0288C20.5399 18.9641 20.723 18.8703 20.88 18.7472C21.04 18.621 21.1708 18.4686 21.2724 18.2901C21.377 18.1085 21.4493 17.9039 21.4893 17.6761L23.7976 17.69C23.7576 18.1085 23.636 18.521 23.4329 18.9272C23.2328 19.3335 22.9574 19.7043 22.6065 20.0398C22.2557 20.3722 21.8279 20.6368 21.3232 20.8338C20.8215 21.0308 20.246 21.1293 19.5966 21.1293C18.741 21.1293 17.9747 20.9415 17.2976 20.5661C16.6236 20.1875 16.0911 19.6366 15.7003 18.9134C15.3094 18.1901 15.114 17.3099 15.114 16.2727C15.114 15.2325 15.3125 14.3507 15.7095 13.6275C16.1065 12.9042 16.6436 12.3549 17.3207 11.9794C17.9978 11.6039 18.7564 11.4162 19.5966 11.4162C20.169 11.4162 20.6984 11.4962 21.1847 11.6562C21.6709 11.8132 22.0987 12.044 22.468 12.3487C22.8374 12.6503 23.1374 13.0212 23.3683 13.4613C23.5991 13.9014 23.7422 14.4046 23.7976 14.9709Z" fill="white"/>
<path d="M20.826 25.38C20.7952 25.0414 20.6583 24.7783 20.4151 24.5906C20.1751 24.3997 19.8319 24.3043 19.3857 24.3043C19.0902 24.3043 18.844 24.3428 18.647 24.4197C18.45 24.4967 18.3023 24.6029 18.2038 24.7383C18.1054 24.8706 18.0546 25.023 18.0515 25.1953C18.0453 25.3369 18.073 25.4615 18.1346 25.5692C18.1992 25.677 18.2915 25.7724 18.4116 25.8555C18.5347 25.9355 18.6824 26.0063 18.8548 26.0678C19.0271 26.1294 19.221 26.1832 19.4364 26.2294L20.2489 26.4141C20.7167 26.5156 21.1291 26.651 21.4862 26.8203C21.8462 26.9896 22.1478 27.1912 22.391 27.4251C22.6372 27.659 22.8234 27.9283 22.9496 28.233C23.0758 28.5376 23.1404 28.8793 23.1435 29.2578C23.1404 29.8549 22.9896 30.3673 22.6911 30.7951C22.3925 31.2229 21.9632 31.5507 21.4031 31.7784C20.846 32.0062 20.1735 32.12 19.3857 32.12C18.5947 32.12 17.9053 32.0015 17.3175 31.7646C16.7296 31.5276 16.2726 31.1675 15.9464 30.6843C15.6201 30.2011 15.4524 29.5902 15.4432 28.8516H17.6314C17.6499 29.1562 17.7314 29.4102 17.8761 29.6133C18.0207 29.8164 18.2192 29.9703 18.4716 30.0749C18.727 30.1796 19.0225 30.2319 19.358 30.2319C19.6657 30.2319 19.9273 30.1903 20.1428 30.1072C20.3613 30.0241 20.529 29.9087 20.646 29.761C20.7629 29.6133 20.8229 29.444 20.826 29.2532C20.8229 29.0747 20.7675 28.9223 20.6598 28.7962C20.5521 28.6669 20.3859 28.5561 20.1612 28.4638C19.9396 28.3684 19.6565 28.2807 19.3118 28.2006L18.3239 27.9698C17.5052 27.7821 16.8604 27.4789 16.3896 27.0604C15.9187 26.6387 15.6848 26.0694 15.6879 25.3523C15.6848 24.7675 15.8417 24.2551 16.1587 23.815C16.4757 23.3749 16.9143 23.0317 17.4744 22.7855C18.0346 22.5393 18.6732 22.4162 19.3903 22.4162C20.1228 22.4162 20.7583 22.5408 21.2969 22.7901C21.8385 23.0363 22.2586 23.3826 22.5572 23.8288C22.8557 24.2751 23.008 24.7921 23.0142 25.38H20.826Z" fill="white"/>
</svg>
