<svg width="208" height="166" viewBox="0 0 208 166" fill="none" xmlns="http://www.w3.org/2000/svg">
<path d="M98.9883 71.5169L23.0333 114.408C20.3224 115.939 20.3224 119.843 23.0333 121.374L98.9883 164.265C100.223 164.963 101.735 164.954 102.962 164.242L176.901 121.351C179.558 119.81 179.558 115.973 176.901 114.431L102.962 71.5399C101.735 70.8282 100.223 70.8194 98.9883 71.5169Z" fill="#D9D9D9"/>
<g filter="url(#filter0_d_8151_1239)">
<path d="M98.9883 43.5169L23.0333 86.4081C20.3224 87.9389 20.3224 91.8433 23.0333 93.3741L98.9883 136.265C100.223 136.963 101.735 136.954 102.962 136.242L176.901 93.3511C179.558 91.8097 179.558 87.9725 176.901 86.4311L102.962 43.5399C101.735 42.8282 100.223 42.8194 98.9883 43.5169Z" fill="white"/>
</g>
<g filter="url(#filter1_d_8151_1239)">
<path d="M98.9883 16.5169L23.0333 59.4081C20.3224 60.9389 20.3224 64.8433 23.0333 66.3741L98.9883 109.265C100.223 109.963 101.735 109.954 102.962 109.242L176.901 66.3511C179.558 64.8097 179.558 60.9725 176.901 59.4311L102.962 16.5399C101.735 15.8282 100.223 15.8194 98.9883 16.5169Z" fill="#202420"/>
</g>
<defs>
<filter id="filter0_d_8151_1239" x="1" y="23" width="205.894" height="141.782" filterUnits="userSpaceOnUse" color-interpolation-filters="sRGB">
<feFlood flood-opacity="0" result="BackgroundImageFix"/>
<feColorMatrix in="SourceAlpha" type="matrix" values="0 0 0 0 0 0 0 0 0 0 0 0 0 0 0 0 0 0 127 0" result="hardAlpha"/>
<feOffset dx="4" dy="4"/>
<feGaussianBlur stdDeviation="12"/>
<feComposite in2="hardAlpha" operator="out"/>
<feColorMatrix type="matrix" values="0 0 0 0 1 0 0 0 0 1 0 0 0 0 1 0 0 0 0.8 0"/>
<feBlend mode="normal" in2="BackgroundImageFix" result="effect1_dropShadow_8151_1239"/>
<feBlend mode="normal" in="SourceGraphic" in2="effect1_dropShadow_8151_1239" result="shape"/>
</filter>
<filter id="filter1_d_8151_1239" x="0" y="0" width="207.894" height="143.782" filterUnits="userSpaceOnUse" color-interpolation-filters="sRGB">
<feFlood flood-opacity="0" result="BackgroundImageFix"/>
<feColorMatrix in="SourceAlpha" type="matrix" values="0 0 0 0 0 0 0 0 0 0 0 0 0 0 0 0 0 0 127 0" result="hardAlpha"/>
<feOffset dx="4" dy="9"/>
<feGaussianBlur stdDeviation="12.5"/>
<feComposite in2="hardAlpha" operator="out"/>
<feColorMatrix type="matrix" values="0 0 0 0 1 0 0 0 0 1 0 0 0 0 1 0 0 0 0.8 0"/>
<feBlend mode="normal" in2="BackgroundImageFix" result="effect1_dropShadow_8151_1239"/>
<feBlend mode="normal" in="SourceGraphic" in2="effect1_dropShadow_8151_1239" result="shape"/>
</filter>
</defs>
</svg>
